<svg width="797.5" height="834.5" data-name="Layer 1" version="1.1" viewBox="0 0 797.5 834.5" xmlns="http://www.w3.org/2000/svg">
 <title>void</title>
 <g>
  <ellipse cx="332.2" cy="684.76" rx="227.5" ry="40.191" fill="#3f3d56"/>
  <circle cx="470.47" cy="331.89" r="222.34" fill="#3f3d56"/>
  <circle cx="470.47" cy="331.89" r="183.55" opacity=".05"/>
  <circle cx="470.47" cy="331.89" r="150.44" opacity=".05"/>
  <circle cx="470.47" cy="331.89" r="107.86" opacity=".05"/>
  <path d="m250.1 351.79s-17.48 49.204-9.7114 66.685c7.7691 17.48 20.07 34.314 20.07 34.314s-4.532-97.761-10.359-101z" fill="#d0cde1"/>
  <path d="m250.1 351.79s-17.48 49.204-9.7114 66.685c7.7691 17.48 20.07 34.314 20.07 34.314s-4.532-97.761-10.359-101z" opacity=".1"/>
 </g>
 <g fill="#2f2e41">
  <path d="m262.4 465.74s-1.2948 12.301-1.9423 12.948c-0.64742 0.64742 0.64742 1.9423 0 3.8845-0.64742 1.9423-1.2948 4.532 0 5.1794 1.2948 0.64743-7.1217 57.621-7.1217 57.621s-20.718 27.192-12.301 69.922l2.5897 43.377s20.07 1.2948 20.07-5.8268c0 0-1.2948-8.4165-1.2948-12.301s3.2371-3.8846 1.2948-5.8268c-1.9423-1.9423-1.9423-3.2371-1.9423-3.2371s3.2371-2.5897 2.5897-3.2371c-0.64743-0.64743 5.8268-46.615 5.8268-46.615s7.1217-7.1217 7.1217-11.006v-3.8846s3.2371-8.4165 3.2371-9.064 17.48-40.14 17.48-40.14l7.1217 28.487 7.7691 40.788s3.8845 36.903 11.654 51.147c0 0 13.596 46.615 13.596 45.32s22.66-4.532 22.012-10.359c-0.64742-5.8268-13.596-87.402-13.596-87.402l3.2371-121.07z"/>
  <path d="m244.92 655.43s-17.48 34.314-5.8268 35.608c11.654 1.2948 16.186 1.2949 21.365-3.8845 2.8316-2.8316 8.5657-6.6307 13.182-9.4931a17.048 17.048 0 0 0 8.089-16.21c-0.34144-3.1676-1.525-5.7775-4.4384-6.0203-7.7691-0.64742-16.833-7.7691-16.833-7.7691z"/>
  <path d="m341.38 680.68s-17.48 34.314-5.8268 35.608c11.654 1.2948 16.186 1.2948 21.365-3.8845 2.8316-2.8316 8.5657-6.6307 13.182-9.4931a17.048 17.048 0 0 0 8.089-16.21c-0.34144-3.1676-1.525-5.7775-4.4384-6.0203-7.7691-0.64742-16.833-7.7691-16.833-7.7691z"/>
 </g>
 <g>
  <circle cx="322.91" cy="268.42" r="27.215" fill="#ffb8b8"/>
  <path d="m305.41 277.36s-19.44 35.769-20.995 35.769c-1.5551 0 34.991 11.664 34.991 11.664s10.109-34.214 11.664-37.324z" fill="#ffb8b8"/>
  <path d="m335.23 316.5s-38.846-21.365-42.73-20.718-45.32 36.903-44.672 51.794c0.64743 14.891 5.8268 39.493 5.8268 39.493s1.9423 68.627 5.8268 69.274c3.8846 0.64742-0.64742 12.301 0.64743 12.301 1.2949 0 90.64 0 91.287-1.9423 0.64743-1.9423-16.186-150.2-16.186-150.2z" fill="#d0cde1"/>
  <path d="m356.92 470.27s12.301 37.551 1.9423 36.256-14.891-32.371-14.891-32.371z" fill="#ffb8b8"/>
  <path d="m323.9 314.24s-23.955 5.1794-20.07 37.551c3.8846 32.371 11.006 64.742 11.006 64.742l23.955 52.441 2.5897 9.7114 17.48-4.532-12.948-75.101s-4.532-80.281-10.359-82.87a25.073 25.073 0 0 0-11.654-1.9423z" fill="#d0cde1"/>
 </g>
 <polygon transform="matrix(.73745 0 0 .73745 104.69 109.55)" points="283.86 411.09 277.5 414.96 317.88 486.95" opacity=".1" stroke-width="1.356"/>
 <path d="m350 260.41 0.09-2.0797 4.1372 1.0297a4.6236 4.6236 0 0 0-1.8538-3.4034l4.4069-0.2464a47.548 47.548 0 0 0-31.802-19.654c-9.5322-1.3816-20.146 0.61766-26.682 7.6919-3.1705 3.4314-5.1626 7.795-6.5798 12.247-2.61 8.1991-3.1418 17.973 2.3006 24.638 5.5313 6.7736 15.193 8.1004 23.898 8.9387 3.0628 0.29498 6.2726 0.56943 9.1109-0.61892a21.918 21.918 0 0 0-1.2197-9.614 6.406 6.406 0 0 1-0.64807-3.0622c0.38695-2.5897 3.8413-3.2421 6.4362-2.8922 2.5949 0.34988 5.7151 0.88517 7.4202-1.102 1.1745-1.3688 1.1052-3.362 1.2608-5.159 0.42364-4.892 9.6811-5.6873 9.7255-6.7129z" fill="#2f2e41"/>
 <g fill="#0d6efd">
  <circle cx="516.93" cy="658.58" r="31.71"/>
  <circle cx="144.51" cy="647.52" r="31.71"/>
  <circle cx="144.51" cy="605.48" r="22.861"/>
  <circle cx="144.51" cy="570.09" r="16.224"/>
 </g>
</svg>
